<svg xmlns="http://www.w3.org/2000/svg" viewBox="0 0 1200 1200" role="img" aria-labelledby="title desc">
  <title id="title">Voxi Claw Anime Logo</title>
  <desc id="desc">A transparent-background anime mascot logo for Voxi Claw with fox ears, expressive cyan eye, claw marks, and bold wordmark.</desc>
  <defs>
    <linearGradient id="cyanGrad" x1="0" x2="1" y1="0" y2="1">
      <stop offset="0" stop-color="#24f4ff"/>
      <stop offset="1" stop-color="#008cff"/>
    </linearGradient>
    <linearGradient id="whiteGrad" x1="0" x2="0" y1="0" y2="1">
      <stop offset="0" stop-color="#ffffff"/>
      <stop offset="1" stop-color="#d8e6f4"/>
    </linearGradient>
    <filter id="softGlow" x="-30%" y="-30%" width="160%" height="160%">
      <feGaussianBlur stdDeviation="4" result="blur"/>
      <feColorMatrix in="blur" type="matrix" values="0 0 0 0 0.0  0 0 0 0 0.85  0 0 0 0 1  0 0 0 .75 0" result="glow"/>
      <feMerge>
        <feMergeNode in="glow"/>
        <feMergeNode in="SourceGraphic"/>
      </feMerge>
    </filter>
  </defs>

  <!-- soft badge arcs, not robotic -->
  <path d="M282 407C329 265 449 182 592 180c146-2 275 82 326 221" fill="none" stroke="#06101f" stroke-width="28" stroke-linecap="round" opacity=".95"/>
  <path d="M254 440c10-61 35-116 72-163" fill="none" stroke="url(#cyanGrad)" stroke-width="10" stroke-linecap="round"/>
  <path d="M883 275c39 48 63 104 72 165" fill="none" stroke="url(#cyanGrad)" stroke-width="10" stroke-linecap="round"/>

  <!-- outer sticker shadow/outline shape -->
  <path d="M185 735L119 640l160 31 54 81 80-89h162c-10-29-3-64 23-91l-29-82-85 75-21-117-113 96 23-161-118 38 73-120 67 5 46-206 120 150c58-28 126-38 197-21l127-139 1 195 114-31-56 123 77 8-83 93c19 35 27 74 21 112 83 7 145 56 159 137l126 15-110 91 57 45-144 22-84 119-52-92-134 122 12-127-124 64 22-83H423l-76 82 10-96-136 73 42-137z" fill="#020817"/>

  <!-- anime ears/head silhouette -->
  <path d="M396 377L434 94l142 178c56-38 134-54 211-34L929 83l-20 284 80-30-64 111 73 16-102 76c-1 152-120 269-298 269-174 0-300-111-300-257 0-64 26-122 98-175z" fill="#06101f"/>

  <!-- cyan ear trim -->
  <path d="M850 165l-12 163 42-15-45 78 50 10-80 61" fill="none" stroke="url(#cyanGrad)" stroke-width="16" stroke-linejoin="round" stroke-linecap="round"/>
  <path d="M443 177l22 153-52 43" fill="none" stroke="#ffffff" stroke-width="18" stroke-linecap="round" stroke-linejoin="round"/>

  <!-- fluffy white anime hair -->
  <path d="M338 446c72-128 184-197 314-207-53 35-80 70-96 113 49-36 95-52 151-56-67 49-98 94-115 157 45-29 85-45 132-50-55 48-89 96-104 151 43-30 89-44 146-45-88 86-193 121-320 112l42 64c-67-21-115-62-147-118l-69 50 31-104-94 14 129-81z" fill="url(#whiteGrad)" stroke="#06101f" stroke-width="18" stroke-linejoin="round"/>

  <!-- face patches -->
  <path d="M517 489c71-79 166-98 253-56-32 7-53 23-63 49 42-3 80 7 114 31-87 73-197 91-304 42z" fill="#0b1730" opacity=".9"/>

  <!-- expressive anime eye -->
  <path d="M573 532c55-50 126-55 181-15-51 50-124 57-181 15z" fill="#eaffff" stroke="#06101f" stroke-width="10"/>
  <ellipse cx="660" cy="523" rx="30" ry="44" fill="url(#cyanGrad)" filter="url(#softGlow)"/>
  <ellipse cx="668" cy="514" rx="10" ry="18" fill="#dfffff"/>
  <path d="M563 503c54-35 121-42 183-13" fill="none" stroke="#06101f" stroke-width="18" stroke-linecap="round"/>

  <!-- cute voice mark under face -->
  <g filter="url(#softGlow)" stroke="url(#cyanGrad)" stroke-width="14" stroke-linecap="round">
    <path d="M496 667v-18"/>
    <path d="M532 683v-58"/>
    <path d="M568 704v-100"/>
    <path d="M604 683v-58"/>
    <path d="M640 667v-18"/>
  </g>

  <!-- paw/claw, more organic -->
  <path d="M716 610c28-47 85-57 127-23 28-30 83-31 116 3 45-17 98 7 112 53 15 48-17 94-66 99l-282 30c-53 5-90-48-66-95 12-24 34-39 59-67z" fill="#071126" stroke="#06101f" stroke-width="20"/>
  <path d="M765 678c-18 46-9 88 32 121-2-55 8-92 41-126z" fill="url(#whiteGrad)" stroke="#06101f" stroke-width="12"/>
  <path d="M877 653c-21 52-15 95 25 130 0-57 15-98 53-129z" fill="url(#whiteGrad)" stroke="#06101f" stroke-width="12"/>
  <path d="M988 660c-23 49-21 88 11 122 7-54 23-88 60-113z" fill="url(#whiteGrad)" stroke="#06101f" stroke-width="12"/>
  <path d="M725 628c25-22 58-23 83-4M843 598c25-16 58-13 80 8M963 611c24-10 57 0 74 26" fill="none" stroke="#ffffff" stroke-width="9" stroke-linecap="round" opacity=".95"/>
  <path d="M740 710c42-6 61-20 74-48M858 702c51-7 75-23 93-55M970 706c36-5 60-18 82-46" fill="none" stroke="url(#cyanGrad)" stroke-width="8" stroke-linecap="round" opacity=".9"/>

  <!-- wordmark base -->
  <path d="M160 724h252l52-72h234l44 72h283l60-54 50 75-96 87 79 50H913l-64 89-41-88H673l-72 102 9-102H344l-92 92 22-101H150l62-69z" fill="#06101f"/>

  <!-- VOXI text as vector shapes -->
  <g fill="#ffffff" stroke="#06101f" stroke-width="14" stroke-linejoin="round">
    <path d="M194 743h112l19 141 92-141h105L354 940H250z"/>
    <path d="M468 743h185l36 54-58 88H445l-36-54z"/>
    <path d="M731 743h103l45 56 73-56h115L931 841l91 99H908l-48-61-79 61H664l140-103z"/>
    <path d="M1036 743h83l-49 197h-83z"/>
  </g>
  <path d="M494 802h88l-17 36h-90z" fill="#06101f"/>
  <path d="M508 822h15M545 822h15M582 822h15" stroke="url(#cyanGrad)" stroke-width="12" stroke-linecap="round"/>
  <path d="M1043 707h85l-13 34h-85z" fill="url(#cyanGrad)" stroke="#06101f" stroke-width="12" stroke-linejoin="round"/>

  <!-- CLAW text -->
  <g fill="url(#cyanGrad)" stroke="#06101f" stroke-width="13" stroke-linejoin="round">
    <path d="M324 934h185l-22 52H367l-19 49h130l-24 55H245l76-156z"/>
    <path d="M536 934h91l-50 103h135l-28 53H457z"/>
    <path d="M748 934h101l57 156h-91l-8-29h-92l-33 29h-98zM754 1014h43l-12-45z"/>
    <path d="M906 934h82l-11 77 72-77h72l-12 78 73-78h88l-156 156h-77l9-76-74 76h-78z"/>
  </g>

  <!-- small organic claw slash accents -->
  <path d="M900 1018l-47 116M962 1012l-36 131M1025 1008l-22 112" stroke="url(#cyanGrad)" stroke-width="12" stroke-linecap="round"/>
</svg>
